<svg id="OBJECTS" xmlns="http://www.w3.org/2000/svg" xmlns:xlink="http://www.w3.org/1999/xlink" viewBox="0 0 68.77 69.77"><defs><style>.cls-1{fill:#00a8e0;}.cls-2{fill:none;}.cls-3{fill:url(#radial-gradient);}.cls-4{fill:url(#radial-gradient-2);}.cls-5{fill:#ea331b;}.cls-6{fill:#0094cf;}</style><radialGradient id="radial-gradient" cx="406.47" cy="331.89" r="6.71" gradientTransform="translate(28.89 -32.6) rotate(4.73)" gradientUnits="userSpaceOnUse"><stop offset="0" stop-color="#fff"/><stop offset="1" stop-color="#fafafa"/></radialGradient><radialGradient id="radial-gradient-2" cx="406.47" cy="332.1" r="6.82" xlink:href="#radial-gradient"/></defs><path class="cls-1" d="M436.8,367.21,420,361.66a34.44,34.44,0,1,1,11.33-10.5Zm-33.92-65.67a30.29,30.29,0,1,0,15.79,56.14l.81-.49,10.78,3.55-3.5-10.25.62-.86a30.28,30.28,0,0,0-24.5-48.09Z" transform="translate(-368.5 -297.44)"/><circle class="cls-2" cx="38.72" cy="12.42" r="1.45"/><path class="cls-1" d="M391.2,337.49a3.39,3.39,0,0,0-2.81,1.49l-4.87,7.16h42.2L420.85,339a3.42,3.42,0,0,0-2.81-1.49h-8.48l-.34,4.35c-.06,1.65-1.9,2.71-4.72,2.71s-4.67-1.06-4.73-2.71l-.34-4.35Z" transform="translate(-368.5 -297.44)"/><path class="cls-1" d="M404.5,342.88c1.65,0,3.06-.48,3.06-1.12l1.72-22.22a8.6,8.6,0,0,1-9.56,0l1.72,22.22C401.44,342.4,402.85,342.88,404.5,342.88Zm2.19-20a.64.64,0,0,1,.69-.59h0a.64.64,0,0,1,.59.7l-.13,1.61a.65.65,0,0,1-.64.6h0a.65.65,0,0,1-.65-.7Zm-.36,4.34a.64.64,0,0,1,.64-.59h0a.64.64,0,0,1,.64.7l-1.12,13.61a.65.65,0,0,1-.7.59.64.64,0,0,1-.59-.7Z" transform="translate(-368.5 -297.44)"/><path class="cls-1" d="M407.2,325.16h0a.65.65,0,0,0,.64-.6L408,323a.64.64,0,0,0-.59-.7h0a.64.64,0,0,0-.69.59l-.14,1.62A.65.65,0,0,0,407.2,325.16Z" transform="translate(-368.5 -297.44)"/><path class="cls-3" d="M407.2,325.16h0a.65.65,0,0,0,.64-.6L408,323a.64.64,0,0,0-.59-.7h0a.64.64,0,0,0-.69.59l-.14,1.62A.65.65,0,0,0,407.2,325.16Z" transform="translate(-368.5 -297.44)"/><path class="cls-1" d="M405.79,341.49a.65.65,0,0,0,.7-.59l1.12-13.61a.64.64,0,0,0-.64-.7h0a.64.64,0,0,0-.64.59l-1.13,13.61A.64.64,0,0,0,405.79,341.49Z" transform="translate(-368.5 -297.44)"/><path class="cls-4" d="M405.79,341.49a.65.65,0,0,0,.7-.59l1.12-13.61a.64.64,0,0,0-.64-.7h0a.64.64,0,0,0-.64.59l-1.13,13.61A.64.64,0,0,0,405.79,341.49Z" transform="translate(-368.5 -297.44)"/><path class="cls-5" d="M397.55,312.37a6.95,6.95,0,1,0,6.95-6.95A6.95,6.95,0,0,0,397.55,312.37Zm9.66-4a1.45,1.45,0,1,1-1.45,1.45A1.44,1.44,0,0,1,407.21,308.41Z" transform="translate(-368.5 -297.44)"/><path class="cls-6" d="M425.72,347.82H383.28v4.95a28.77,28.77,0,0,0,17.79,7.9h4.27a28.85,28.85,0,0,0,12.24-3.74l2.12-1.21,6,2v-7l-.14-.4.14-.2Zm-25.63,5.28a1.21,1.21,0,1,1,1.21-1.21A1.21,1.21,0,0,1,400.09,353.1Zm8.81,0a1.21,1.21,0,1,1,1.21-1.21A1.21,1.21,0,0,1,408.9,353.1Z" transform="translate(-368.5 -297.44)"/></svg>